<svg width="26" height="25" viewBox="0 0 26 25" fill="none" xmlns="http://www.w3.org/2000/svg">
<path d="M3.38431 0.651775C1.91439 0.698591 0.757066 1.93206 0.803883 3.40201L1.3981 22.0591C1.44492 23.5291 2.67838 24.6864 4.14831 24.6396L12.972 24.3586L16.6941 24.24L22.8055 24.0454C24.2754 23.9986 25.4328 22.7651 25.3859 21.2952L24.7917 2.63802C24.7449 1.16806 23.5114 0.0107418 22.0415 0.0575587L3.38431 0.651775ZM3.4883 3.91682C3.47775 3.58559 3.7377 3.30857 4.0689 3.29802L21.5268 2.742C21.858 2.73145 22.135 2.99127 22.1456 3.3225L22.7041 20.7803C22.7146 21.1115 22.4547 21.3885 22.1235 21.3991L17.2089 21.5556C16.8776 21.5661 16.6006 21.3062 16.5901 20.975L16.46 16.8907C16.4495 16.5594 16.7094 16.2824 17.0406 16.2719L19.0657 16.2074C19.3671 16.1978 19.6147 15.9658 19.6437 15.6655L19.88 13.2239C19.9149 12.8637 19.6254 12.5549 19.2638 12.5664L16.9457 12.6402C16.6145 12.6508 16.3375 12.3908 16.327 12.0597L16.2724 10.3454C16.2389 9.29525 16.509 8.57649 18.0149 8.52853L19.3178 8.48703C19.6491 8.47648 19.909 8.19947 19.8984 7.86824L19.8316 5.769C19.8218 5.46136 19.5809 5.2103 19.2735 5.19507C18.5239 5.15782 17.7731 5.15222 17.0222 5.17823C14.2583 5.26626 12.4195 7.01348 12.5182 10.1106L12.5842 12.1841C12.5948 12.5152 12.3348 12.7923 12.0036 12.8029L10.0796 12.8641C9.74838 12.8747 9.48844 13.1517 9.49899 13.4829L9.57643 15.9145C9.58698 16.2457 9.86402 16.5056 10.1952 16.4951L12.1193 16.4338C12.4505 16.4233 12.7275 16.6832 12.7381 17.0144L12.868 21.0935C12.8785 21.4248 12.6186 21.7018 12.2874 21.7123L4.66311 21.9552C4.33191 21.9657 4.05487 21.7058 4.04432 21.3746L3.4883 3.91682Z" fill="#4F3527"/>
</svg>
