<svg width="25" height="25" viewBox="0 0 25 25" fill="none" xmlns="http://www.w3.org/2000/svg">
<path d="M6.66329 0.551787C2.98915 0.668805 0.0952023 3.75316 0.212221 7.4273L0.551773 18.0885C0.668791 21.7627 3.75315 24.6566 7.42729 24.5396L18.0885 24.2001C21.7626 24.0831 24.6566 20.9987 24.5396 17.3245L24.2001 6.6633C24.083 2.98917 20.9987 0.0952164 17.3245 0.212235L6.66329 0.551787ZM6.74818 3.21711L17.4094 2.87755C19.6137 2.80735 21.4645 4.54397 21.5347 6.74819L21.8743 17.4094C21.9445 19.6137 20.2079 21.4645 18.0036 21.5347L7.3424 21.8743C5.13817 21.9445 3.2873 20.2079 3.21709 18.0036L2.87754 7.34241C2.80734 5.13819 4.54396 3.28731 6.74818 3.21711ZM18.7846 4.16776C18.0485 4.1912 17.4709 4.80687 17.4943 5.54286C17.5177 6.27887 18.1334 6.85652 18.8695 6.83308C19.6054 6.80964 20.1831 6.19398 20.1596 5.45797C20.1362 4.72198 19.5205 4.14432 18.7846 4.16776ZM12.1637 5.71264C8.48956 5.82966 5.59561 8.91401 5.71262 12.5881C5.82964 16.2623 8.914 19.1563 12.5881 19.0393C16.2623 18.9222 19.1563 15.8378 19.0392 12.1637C18.9222 8.48957 15.8378 5.59562 12.1637 5.71264ZM12.2486 8.37796C14.4528 8.30775 16.3037 10.0444 16.3739 12.2486C16.4441 14.4528 14.7074 16.3037 12.5032 16.3739C10.299 16.4441 8.44814 14.7074 8.37794 12.5033C8.30774 10.299 10.0444 8.44816 12.2486 8.37796Z" fill="#4F3527"/>
</svg>
