<svg width="26" height="25" viewBox="0 0 26 25" fill="none" xmlns="http://www.w3.org/2000/svg">
<path d="M4.76912 0.571377C2.38904 0.647181 0.500126 2.66033 0.575921 5.04012L1.06405 20.3664C1.13984 22.7461 3.15303 24.635 5.53312 24.5592L20.8587 24.0711C23.2387 23.9953 25.1277 21.9822 25.0519 19.6024L24.5638 4.27613C24.488 1.89634 22.4747 0.00746703 20.0947 0.083268L4.76912 0.571377ZM4.83279 2.57036L20.1584 2.08225C21.4577 2.04087 22.5234 3.04045 22.5648 4.3398L23.0529 19.666C23.0943 20.9654 22.0944 22.0307 20.795 22.0721L5.46945 22.5602C4.17007 22.6016 3.10442 21.602 3.06304 20.3027L2.57491 4.97646C2.53352 3.67712 3.53341 2.61175 4.83279 2.57036ZM5.82386 5.87349L11.2134 13.0766L6.24441 19.2009L7.6057 19.1575L11.8435 13.9209L15.5717 18.9038L19.8612 18.7672L14.1261 11.1019L18.6897 5.46372L17.3571 5.50616L13.4973 10.2604L10.1134 5.73687L5.82386 5.87349ZM7.93042 6.93797L9.6379 6.88358L17.7546 17.7027L16.0472 17.7571L7.93042 6.93797Z" fill="#4F3527"/>
</svg>
